{
	"asset":{
		"generator":"Khronos glTF Blender I/O v3.6.27",
		"version":"2.0"
	},
	"scene":0,
	"scenes":[
		{
			"extras":{
				"blidge":{
					"export_scene_data_path":"//../src/ts/Scene/Carpenter/scene/scene.json",
					"fcurve_list":[
						{
							"id":"Content1Action_location_x",
							"accessor":"Content1Action_location",
							"axis":0
						},
						{
							"id":"Content1Action_location_z",
							"accessor":"Content1Action_location",
							"axis":1
						},
						{
							"id":"Content1Action_location_y",
							"accessor":"Content1Action_location",
							"axis":2
						},
						{
							"id":"Content1Action_rotation_euler_z",
							"accessor":"Content1Action_rotation_euler",
							"axis":1
						},
						{
							"id":"Content1Action_rotation_euler_y",
							"accessor":"Content1Action_rotation_euler",
							"axis":2
						},
						{
							"id":"Content1Action_rotation_euler_x",
							"accessor":"Content1Action_rotation_euler",
							"axis":0
						},
						{
							"id":"CameraTargetDofAction.001_location_z",
							"accessor":"CameraTargetDofAction.001_location",
							"axis":1
						},
						{
							"id":"CameraTargetDofAction.001_location_y",
							"accessor":"CameraTargetDofAction.001_location",
							"axis":2
						},
						{
							"id":"CameraTargetDofAction.001_location_x",
							"accessor":"CameraTargetDofAction.001_location",
							"axis":0
						},
						{
							"id":"CameraAction_location_z",
							"accessor":"CameraAction_location",
							"axis":1
						},
						{
							"id":"CameraAction_location_y",
							"accessor":"CameraAction_location",
							"axis":2
						},
						{
							"id":"CameraAction_location_x",
							"accessor":"CameraAction_location",
							"axis":0
						},
						{
							"id":"CameraTargetAction_location_z",
							"accessor":"CameraTargetAction_location",
							"axis":1
						},
						{
							"id":"CameraTargetAction_location_y",
							"accessor":"CameraTargetAction_location",
							"axis":2
						},
						{
							"id":"CameraTargetAction_location_x",
							"accessor":"CameraTargetAction_location",
							"axis":0
						},
						{
							"id":"CameraAction.001_lens_x",
							"accessor":"CameraState",
							"axis":0
						},
						{
							"id":"CameraTargetDofAction_location_z",
							"accessor":"CameraTargetDofAction_location",
							"axis":1
						},
						{
							"id":"CameraTargetDofAction_location_y",
							"accessor":"CameraTargetDofAction_location",
							"axis":2
						},
						{
							"id":"CameraTargetDofAction_location_x",
							"accessor":"CameraTargetDofAction_location",
							"axis":0
						}
					],
					"accessor_list":[
						{
							"name":"Content1Action_location"
						},
						{
							"name":"Content1Action_rotation_euler"
						},
						{
							"name":"CameraTargetDofAction.001_location"
						},
						{
							"name":"CameraAction_location"
						},
						{
							"name":"CameraTargetAction_location"
						},
						{
							"name":"CameraState"
						},
						{
							"name":"CameraTargetDofAction_location"
						}
					],
					"sync_port":3100,
					"export_gltf_path":"\\\\wsl.localhost\\Ubuntu-22.04\\home\\ukonpower\\work-space\\hakidame12\\src\\public\\scene.glb",
					"export_gltf_preset_list":0
				}
			},
			"name":"Scene",
			"nodes":[
				1,
				2
			]
		}
	],
	"nodes":[
		{
			"extras":{
				"blidge":{
					"material":{},
					"type":0
				}
			},
			"mesh":0,
			"name":"Suzanne.002",
			"rotation":[
				-0.006932697258889675,
				0.08678402751684189,
				0.0651252418756485,
				0.9940720200538635
			],
			"scale":[
				0.5130438804626465,
				0.5130438208580017,
				0.5130438208580017
			],
			"translation":[
				-0.17878201603889465,
				1.008687138557434,
				0.6146650314331055
			]
		},
		{
			"children":[
				0
			],
			"extras":{
				"blidge":{
					"material":{},
					"type":0
				}
			},
			"mesh":1,
			"name":"Suzanne",
			"rotation":[
				-0.3148696720600128,
				-0.024796629324555397,
				-0.04187212139368057,
				0.94788658618927
			],
			"scale":[
				1.7315555810928345,
				1.7315553426742554,
				1.731555461883545
			],
			"translation":[
				-0.933376669883728,
				0.9352747201919556,
				-1.3720134496688843
			]
		},
		{
			"extras":{
				"blidge":{
					"material":{},
					"type":0
				}
			},
			"mesh":2,
			"name":"Suzanne.001",
			"rotation":[
				-0.2728477120399475,
				-0.39654815196990967,
				-0.1626356542110443,
				0.8613092303276062
			],
			"scale":[
				1.731555461883545,
				1.731555461883545,
				1.731555461883545
			],
			"translation":[
				1.749976634979248,
				0.8010678291320801,
				-0.6400668025016785
			]
		}
	],
	"materials":[
		{
			"doubleSided":true,
			"name":"Material",
			"pbrMetallicRoughness":{
				"baseColorTexture":{
					"index":0
				},
				"metallicFactor":0,
				"roughnessFactor":0.5
			}
		}
	],
	"meshes":[
		{
			"name":"Suzanne.002",
			"primitives":[
				{
					"attributes":{
						"POSITION":0,
						"NORMAL":1,
						"TEXCOORD_0":2,
						"TANGENT":3
					},
					"indices":4,
					"material":0
				}
			]
		},
		{
			"name":"Suzanne",
			"primitives":[
				{
					"attributes":{
						"POSITION":5,
						"NORMAL":6,
						"TEXCOORD_0":7,
						"TANGENT":8
					},
					"indices":4
				}
			]
		},
		{
			"name":"Suzanne.001",
			"primitives":[
				{
					"attributes":{
						"POSITION":9,
						"NORMAL":10,
						"TEXCOORD_0":11,
						"TANGENT":12
					},
					"indices":4,
					"material":0
				}
			]
		}
	],
	"textures":[
		{
			"sampler":0,
			"source":0
		}
	],
	"images":[
		{
			"mimeType":"image/png",
			"name":"grid",
			"uri":"textures/grid.png"
		}
	],
	"accessors":[
		{
			"bufferView":0,
			"componentType":5126,
			"count":1966,
			"max":[
				1.3671875,
				0.984375,
				0.8515625
			],
			"min":[
				-1.3671875,
				-0.984375,
				-0.8515625
			],
			"type":"VEC3"
		},
		{
			"bufferView":1,
			"componentType":5126,
			"count":1966,
			"type":"VEC3"
		},
		{
			"bufferView":2,
			"componentType":5126,
			"count":1966,
			"type":"VEC2"
		},
		{
			"bufferView":3,
			"componentType":5126,
			"count":1966,
			"type":"VEC4"
		},
		{
			"bufferView":4,
			"componentType":5123,
			"count":2904,
			"type":"SCALAR"
		},
		{
			"bufferView":5,
			"componentType":5126,
			"count":1966,
			"max":[
				1.3671875,
				0.984375,
				0.8515625
			],
			"min":[
				-1.3671875,
				-0.984375,
				-0.8515625
			],
			"type":"VEC3"
		},
		{
			"bufferView":6,
			"componentType":5126,
			"count":1966,
			"type":"VEC3"
		},
		{
			"bufferView":7,
			"componentType":5126,
			"count":1966,
			"type":"VEC2"
		},
		{
			"bufferView":8,
			"componentType":5126,
			"count":1966,
			"type":"VEC4"
		},
		{
			"bufferView":9,
			"componentType":5126,
			"count":1966,
			"max":[
				1.3671875,
				0.984375,
				0.8515625
			],
			"min":[
				-1.3671875,
				-0.984375,
				-0.8515625
			],
			"type":"VEC3"
		},
		{
			"bufferView":10,
			"componentType":5126,
			"count":1966,
			"type":"VEC3"
		},
		{
			"bufferView":11,
			"componentType":5126,
			"count":1966,
			"type":"VEC2"
		},
		{
			"bufferView":12,
			"componentType":5126,
			"count":1966,
			"type":"VEC4"
		}
	],
	"bufferViews":[
		{
			"buffer":0,
			"byteLength":23592,
			"byteOffset":0,
			"target":34962
		},
		{
			"buffer":0,
			"byteLength":23592,
			"byteOffset":23592,
			"target":34962
		},
		{
			"buffer":0,
			"byteLength":15728,
			"byteOffset":47184,
			"target":34962
		},
		{
			"buffer":0,
			"byteLength":31456,
			"byteOffset":62912,
			"target":34962
		},
		{
			"buffer":0,
			"byteLength":5808,
			"byteOffset":94368,
			"target":34963
		},
		{
			"buffer":0,
			"byteLength":23592,
			"byteOffset":100176,
			"target":34962
		},
		{
			"buffer":0,
			"byteLength":23592,
			"byteOffset":123768,
			"target":34962
		},
		{
			"buffer":0,
			"byteLength":15728,
			"byteOffset":147360,
			"target":34962
		},
		{
			"buffer":0,
			"byteLength":31456,
			"byteOffset":163088,
			"target":34962
		},
		{
			"buffer":0,
			"byteLength":23592,
			"byteOffset":194544,
			"target":34962
		},
		{
			"buffer":0,
			"byteLength":23592,
			"byteOffset":218136,
			"target":34962
		},
		{
			"buffer":0,
			"byteLength":15728,
			"byteOffset":241728,
			"target":34962
		},
		{
			"buffer":0,
			"byteLength":31456,
			"byteOffset":257456,
			"target":34962
		}
	],
	"samplers":[
		{
			"magFilter":9729,
			"minFilter":9987
		}
	],
	"buffers":[
		{
			"byteLength":288912,
			"uri":"scene.bin"
		}
	]
}
